<?xml version="1.0" encoding="UTF-8"?>
<svg version="1.1" xmlns="http://www.w3.org/2000/svg" width="160" height="160">
<path d="M0 0 C6.27 0 12.54 0 19 0 C13 7 13 7 9.98828125 9.50390625 C6.5661908 12.36235828 3.92933981 15.44344077 1.1875 18.9375 C0.45370117 19.82985352 0.45370117 19.82985352 -0.29492188 20.74023438 C-3.17729871 24.38805569 -4.91086684 27.17995323 -5 32 C-3.27773504 35.24849977 -3.27773504 35.24849977 0 36 C2.99602596 36.23046354 5.99078211 36.38051343 8.9921875 36.5234375 C12.32607395 37.05166366 14.28468976 38.02434416 17 40 C18.56428238 43.12856476 18.28007086 45.52712131 18 49 C17.07508404 51.09620692 15.99934101 53.06370775 14.90234375 55.07421875 C13.60320898 57.84683104 13.50069607 60.00417643 14 63 C17.79190646 65.52793764 19.51327985 65.26396974 23.91015625 64.75390625 C28.43407751 63.65009234 32.43742195 61.66998184 36.55761719 59.52758789 C40.72091754 57.40203745 44.3318861 56.32233586 49 56 C49.66 56.33 50.32 56.66 51 57 C51 61.95 51 66.9 51 72 C45.05399796 73.55510823 41.10370981 74.05236376 35 73 C29.01829519 72.6759545 23.57327882 72.50669105 18 75 C16.75698015 76.02208912 16.75698015 76.02208912 16.8671875 78.1796875 C16.87105469 79.51386719 16.87105469 79.51386719 16.875 80.875 C16.87242188 81.75929688 16.86984375 82.64359375 16.8671875 83.5546875 C16.89951415 86.13906291 16.89951415 86.13906291 18 89 C18.58415124 94.39088148 18.99358424 98.58059395 15.8125 103.125 C10.84157068 106.43895288 7.72301959 105.99530775 2 105 C0.515 105.495 0.515 105.495 -1 106 C-1.58963678 108.24224658 -1.58963678 108.24224658 -1 111 C1.07528445 113.31010257 3.55155728 115.10176913 6 117 C7.46744482 118.23929085 8.92593809 119.48926383 10.375 120.75 C11.04273437 121.32234375 11.71046875 121.8946875 12.3984375 122.484375 C14.30003508 124.28393564 14.96580502 125.31883595 15.09765625 127.9453125 C15.06510417 129.96354167 15.03255208 131.98177083 15 134 C16.175625 134.1546875 16.175625 134.1546875 17.375 134.3125 C20 135 20 135 22 138 C21.625 141.6875 21.625 141.6875 21 145 C17.75 145.8125 17.75 145.8125 14 146 C11.29348303 143.43593129 10.17604084 141.52812251 9 138 C8.071875 137.443125 7.14375 136.88625 6.1875 136.3125 C1.06795582 132.59832089 -0.46378578 127.5485094 -2.5625 121.75 C-4.11280913 117.46094512 -4.11280913 117.46094512 -7 114 C-10.0842309 113.58297878 -10.0842309 113.58297878 -13 114 C-13.33 114.33 -13.66 114.66 -14 115 C-13.69682467 118.8654854 -13.17291245 121.66747606 -11.375 125.125 C-9.82039239 128.37554319 -9.85072841 129.64795787 -11 133 C-11.33 133.33 -11.66 133.66 -12 134 C-14.33944736 133.71269945 -16.6739143 133.38063221 -19 133 C-19.83739781 130.8765984 -20.66980283 128.7512272 -21.5 126.625 C-22.19609375 124.84996094 -22.19609375 124.84996094 -22.90625 123.0390625 C-24 120 -24 120 -24 118 C-26.31 118 -28.62 118 -31 118 C-32.93646048 128.28647809 -32.20068733 138.3876668 -30.4375 148.6484375 C-30 152 -30 152 -30 160 C-35.28 160 -40.56 160 -46 160 C-45.35448571 150.44638847 -43.49253636 141.4101417 -41.32421875 132.09765625 C-40.28396843 127.39176196 -39.74291416 123.77692619 -41 119 C-45.03948108 118.83168829 -48.29826531 118.98668741 -52.1875 120.125 C-56 121 -56 121 -58.03515625 120.5 C-60.97370171 118.25665714 -61.95116685 115.22148337 -63.25 111.875 C-63.518125 111.21628906 -63.78625 110.55757813 -64.0625 109.87890625 C-64.7204713 108.25747697 -65.36187627 106.62934259 -66 105 C-71.34969298 105.13343905 -75.89183685 105.63831286 -80.2421875 109.078125 C-83.46345941 112.60004896 -85.74166517 116.7227401 -88.10546875 120.84375 C-92.5729443 128.28647215 -92.5729443 128.28647215 -96 130 C-97.64255791 130.12114921 -99.29052478 130.17540767 -100.9375 130.1875 C-102.25041016 130.20876953 -102.25041016 130.20876953 -103.58984375 130.23046875 C-106 130 -106 130 -109 128 C-110.01326422 122.52223223 -110.01717953 117.47839626 -109 112 C-106.26414108 108.59817542 -103.05447901 107.43220478 -99 106 C-96.70821647 105.14614694 -94.41655109 104.29197668 -92.125 103.4375 C-91.05507812 103.08558594 -89.98515625 102.73367187 -88.8828125 102.37109375 C-84.93090129 100.49152622 -82.93481343 97.86962685 -81 94 C-79.99322167 86.95255166 -83.0883366 83.42457138 -87 78 C-89.74647084 73.4225486 -90.80153523 70.34356821 -90 65 C-88.23352816 61.50289778 -86.19299824 58.2438099 -84 55 C-85.98 54.01 -87.96 53.02 -90 52 C-90.25 48.6875 -90.25 48.6875 -90 45 C-88.1875 43.0625 -88.1875 43.0625 -86 42 C-85.01 42 -84.02 42 -83 42 C-83.33 41.01 -83.66 40.02 -84 39 C-90.55586351 37.69389953 -97.01719595 36.72115901 -103.6875 36.24609375 C-106 36 -106 36 -109 35 C-109.02465622 30.74585377 -109.04283899 26.49174502 -109.05493164 22.23754883 C-109.05997101 20.78929927 -109.06680253 19.34105483 -109.07543945 17.89282227 C-109.08752247 15.81525412 -109.09323211 13.73775303 -109.09765625 11.66015625 C-109.10289307 10.40855713 -109.10812988 9.15695801 -109.11352539 7.86743164 C-109 5 -109 5 -108 4 C-99.9782295 4.06755175 -93.95514094 6.57031267 -88 12 C-88 12.66 -88 13.32 -88 14 C-87.34 14 -86.68 14 -86 14 C-84.80457522 15.68125012 -83.69287157 17.42248083 -82.625 19.1875 C-78.2349356 27.02647818 -78.2349356 27.02647818 -71.0625 31.875 C-70.41410156 32.11992188 -69.76570313 32.36484375 -69.09765625 32.6171875 C-66.36596708 33.11570806 -64.63012442 32.9019978 -62 32 C-60.25226799 30.12611765 -60.25226799 30.12611765 -58.9375 27.75 C-58.43089844 26.93917969 -57.92429688 26.12835937 -57.40234375 25.29296875 C-56.93957031 24.53628906 -56.47679687 23.77960937 -56 23 C-53.09056212 18.72676311 -51.14419011 16.98926733 -46 16 C-40.38960309 16 -36.89324643 17.44542042 -31.9375 20.0625 C-26.53485682 22.87567054 -23.07757981 24.10094655 -17.046875 22.47265625 C-7.74808877 18.90575543 -4.13432124 8.26864247 0 0 Z " fill="#02020F" transform="translate(109,0)"/>
<path d="M0 0 C6.27 0 12.54 0 19 0 C13 7 13 7 9.98828125 9.50390625 C6.5661908 12.36235828 3.92933981 15.44344077 1.1875 18.9375 C0.45370117 19.82985352 0.45370117 19.82985352 -0.29492188 20.74023438 C-3.17729871 24.38805569 -4.91086684 27.17995323 -5 32 C-3.27773504 35.24849977 -3.27773504 35.24849977 0 36 C2.99602596 36.23046354 5.99078211 36.38051343 8.9921875 36.5234375 C12.32607395 37.05166366 14.28468976 38.02434416 17 40 C18.56428238 43.12856476 18.28007086 45.52712131 18 49 C17.07508404 51.09620692 15.99934101 53.06370775 14.90234375 55.07421875 C13.60320898 57.84683104 13.50069607 60.00417643 14 63 C17.79190646 65.52793764 19.51327985 65.26396974 23.91015625 64.75390625 C28.43407751 63.65009234 32.43742195 61.66998184 36.55761719 59.52758789 C40.72091754 57.40203745 44.3318861 56.32233586 49 56 C49.66 56.33 50.32 56.66 51 57 C51 61.95 51 66.9 51 72 C45.05399796 73.55510823 41.10370981 74.05236376 35 73 C29.01829519 72.6759545 23.57327882 72.50669105 18 75 C16.60843516 76.16277032 16.60843516 76.16277032 16.90234375 79.37890625 C16.90901631 80.77347077 16.92097468 82.16801743 16.9375 83.5625 C16.94201172 84.27341797 16.94652344 84.98433594 16.95117188 85.71679688 C16.96299136 87.47790013 16.98092737 89.23896036 17 91 C14.66350571 87.49525857 13.87584583 85.76812494 13.68359375 81.6484375 C13.64169922 80.79765625 13.59980469 79.946875 13.55664062 79.0703125 C13.51732422 78.18085937 13.47800781 77.29140625 13.4375 76.375 C13.39431641 75.4778125 13.35113281 74.580625 13.30664062 73.65625 C13.20043139 71.43765717 13.09838806 69.2189512 13 67 C10.41603321 66.91887546 7.83462432 66.85945252 5.25 66.8125 C4.52039063 66.78736328 3.79078125 66.76222656 3.0390625 66.73632812 C-0.34486604 66.69018364 -2.57858557 66.74675872 -5.515625 68.51171875 C-6.00546875 69.00285156 -6.4953125 69.49398437 -7 70 C-7.66 69.34 -8.32 68.68 -9 68 C-13.29322859 67.51397412 -15.32082639 67.53758392 -18.9375 70 C-19.618125 70.66 -20.29875 71.32 -21 72 C-21.5878125 71.0409375 -21.5878125 71.0409375 -22.1875 70.0625 C-24.50877925 67.4210443 -25.51587598 67.30296731 -29 67 C-32.00226291 66.93440434 -34.99772154 66.94113179 -38 67 C-38 66.34 -38 65.68 -38 65 C-41.63 65 -45.26 65 -49 65 C-49.33 64.34 -49.66 63.68 -50 63 C-45.71 63 -41.42 63 -37 63 C-36.67 61.68 -36.34 60.36 -36 59 C-36.99 59.66 -37.98 60.32 -39 61 C-40.32 61 -41.64 61 -43 61 C-43 60.01 -43 59.02 -43 58 C-42.34 58 -41.68 58 -41 58 C-41 57.01 -41 56.02 -41 55 C-41.99 55.495 -41.99 55.495 -43 56 C-43 55.01 -43 54.02 -43 53 C-41.02 53.33 -39.04 53.66 -37 54 C-37.33 53.34 -37.66 52.68 -38 52 C-40.55351113 51.56947737 -40.55351113 51.56947737 -43.5 51.4375 C-48.90371389 51.09628611 -48.90371389 51.09628611 -50 50 C-52.35313555 49.92728259 -54.70833668 49.91629132 -57.0625 49.9375 C-58.35285156 49.94652344 -59.64320312 49.95554688 -60.97265625 49.96484375 C-62.47119141 49.98224609 -62.47119141 49.98224609 -64 50 C-64.495 50.99 -64.495 50.99 -65 52 C-68.63 51.67 -72.26 51.34 -76 51 C-75.9175 49.906875 -75.835 48.81375 -75.75 47.6875 C-75.58896039 43.96557142 -75.58896039 43.96557142 -78 42.0625 C-78.99 41.5365625 -78.99 41.5365625 -80 41 C-80.33 41.99 -80.66 42.98 -81 44 C-81.66 43.67 -82.32 43.34 -83 43 C-83.625 40.9375 -83.625 40.9375 -84 39 C-90.55586351 37.69389953 -97.01719595 36.72115901 -103.6875 36.24609375 C-106 36 -106 36 -109 35 C-109.02465622 30.74585377 -109.04283899 26.49174502 -109.05493164 22.23754883 C-109.05997101 20.78929927 -109.06680253 19.34105483 -109.07543945 17.89282227 C-109.08752247 15.81525412 -109.09323211 13.73775303 -109.09765625 11.66015625 C-109.10289307 10.40855713 -109.10812988 9.15695801 -109.11352539 7.86743164 C-109 5 -109 5 -108 4 C-99.9782295 4.06755175 -93.95514094 6.57031267 -88 12 C-88 12.66 -88 13.32 -88 14 C-87.34 14 -86.68 14 -86 14 C-84.80457522 15.68125012 -83.69287157 17.42248083 -82.625 19.1875 C-78.2349356 27.02647818 -78.2349356 27.02647818 -71.0625 31.875 C-70.41410156 32.11992188 -69.76570313 32.36484375 -69.09765625 32.6171875 C-66.36596708 33.11570806 -64.63012442 32.9019978 -62 32 C-60.25226799 30.12611765 -60.25226799 30.12611765 -58.9375 27.75 C-58.43089844 26.93917969 -57.92429688 26.12835937 -57.40234375 25.29296875 C-56.93957031 24.53628906 -56.47679687 23.77960937 -56 23 C-53.09056212 18.72676311 -51.14419011 16.98926733 -46 16 C-40.38960309 16 -36.89324643 17.44542042 -31.9375 20.0625 C-26.53485682 22.87567054 -23.07757981 24.10094655 -17.046875 22.47265625 C-7.74808877 18.90575543 -4.13432124 8.26864247 0 0 Z " fill="#01010E" transform="translate(109,0)"/>
<path d="M0 0 C1.9375 0.6875 1.9375 0.6875 4 2 C5.09809194 5.29427581 5.11196276 6.66411172 4 10 C5.77049689 10.05410687 7.54146849 10.09284119 9.3125 10.125 C10.79169922 10.15980469 10.79169922 10.15980469 12.30078125 10.1953125 C15.22406527 10.20682639 15.22406527 10.20682639 18 8 C20.8828125 7.76953125 20.8828125 7.76953125 24.125 7.8125 C25.20007813 7.81894531 26.27515625 7.82539062 27.3828125 7.83203125 C30 8 30 8 31 9 C32.84891946 9.23363881 34.70488031 9.41303635 36.5625 9.5625 C37.57441406 9.64628906 38.58632812 9.73007812 39.62890625 9.81640625 C40.41136719 9.87699219 41.19382813 9.93757813 42 10 C42.495 11.485 42.495 11.485 43 13 C41.02 12.67 39.04 12.34 37 12 C37.495 12.99 37.495 12.99 38 14 C38.66 13.67 39.32 13.34 40 13 C40 14.65 40 16.3 40 18 C39.01 17.67 38.02 17.34 37 17 C37 17.99 37 18.98 37 20 C39.31 19.34 41.62 18.68 44 18 C43.67 19.32 43.34 20.64 43 22 C38.71 22 34.42 22 30 22 C30 22.66 30 23.32 30 24 C27.91673869 24.02709444 25.83337559 24.04643873 23.75 24.0625 C22.00976562 24.07990234 22.00976562 24.07990234 20.234375 24.09765625 C17.55181554 24.0166611 15.53109467 23.78551214 13 23 C11.14375 22.4740625 11.14375 22.4740625 9.25 21.9375 C8.1775 21.628125 7.105 21.31875 6 21 C6 19.35 6 17.7 6 16 C3.10765685 15.17361624 1.11257569 15 -2 15 C-2.66 13.68 -3.32 12.36 -4 11 C-3.01 11 -2.02 11 -1 11 C-1 8.69 -1 6.38 -1 4 C-0.34 4.33 0.32 4.66 1 5 C0.67 3.35 0.34 1.7 0 0 Z " fill="#121214" transform="translate(29,41)"/>
<path d="M0 0 C2.4375 2 2.4375 2 4 4 C4.33 3.34 4.66 2.68 5 2 C9.95 2 14.9 2 20 2 C20 3.98 20 5.96 20 8 C18.68 8 17.36 8 16 8 C16 11.63 16 15.26 16 19 C14.02 19 12.04 19 10 19 C10 15.37 10 11.74 10 8 C8.68 8 7.36 8 6 8 C5.9071875 9.5778125 5.9071875 9.5778125 5.8125 11.1875 C4.83964191 15.75244948 3.77323546 17.2931137 0 20 C-3.5 20.625 -3.5 20.625 -7 20 C-10.51092615 17.48129211 -11.76503126 15.7463713 -13.0625 11.625 C-12.98012485 6.84724154 -11.72204275 4.8886325 -9 1 C-5.90826248 -0.54586876 -3.40570448 -0.29359521 0 0 Z " fill="#848485" transform="translate(100,67)"/>
<path d="M0 0 C3 2 3 2 4 5 C4.36994554 10.64166944 4.11787827 14.0833458 1 19 C-1.87470493 20.43735246 -3.81894588 20.38172649 -7 20 C-9.64875262 17.83917549 -10.82580882 16.22369301 -11.3125 12.8046875 C-11.42200323 8.65725261 -11.25692349 5.58229802 -9 2 C-5.53001271 -0.31332486 -4.07490752 -0.33957563 0 0 Z " fill="#020210" transform="translate(21,80)"/>
<path d="M0 0 C2.19063736 1.56824151 2.88548114 2.48180214 3.46875 5.12109375 C3.55229432 11.31381615 3.55229432 11.31381615 0.9375 14.5625 C-2.72764707 16.35608261 -4.9661045 16.58674844 -9 16 C-11.4375 14.5 -11.4375 14.5 -13 12 C-13.79285673 8.01119499 -13.59904214 5.04181242 -11.5625 1.5 C-7.8680751 -0.66259019 -4.18565586 -0.85563131 0 0 Z " fill="#030312" transform="translate(141,25)"/>
<path d="M0 0 C8.17817372 -0.36080178 8.17817372 -0.36080178 11.5625 1.125 C13 3 13 3 13.5 6 C13 9 13 9 11.1875 10.875 C9 12 9 12 6 12 C6 13.65 6 15.3 6 17 C4.02 17 2.04 17 0 17 C0 11.39 0 5.78 0 0 Z " fill="#FBFBFB" transform="translate(73,69)"/>
<path d="M0 0 C1.9375 0.6875 1.9375 0.6875 4 2 C5.09809194 5.29427581 5.11196276 6.66411172 4 10 C7.63 10 11.26 10 15 10 C15.33 11.32 15.66 12.64 16 14 C14.68 13.67 13.36 13.34 12 13 C12.33 15.97 12.66 18.94 13 22 C11.02 22 9.04 22 7 22 C6.4465236 19.92446352 6 18.15634036 6 16 C3.10765685 15.17361624 1.11257569 15 -2 15 C-2.66 13.68 -3.32 12.36 -4 11 C-3.01 11 -2.02 11 -1 11 C-1 8.69 -1 6.38 -1 4 C-0.34 4.33 0.32 4.66 1 5 C0.67 3.35 0.34 1.7 0 0 Z " fill="#0F0E22" transform="translate(29,41)"/>
<path d="M0 0 C4.62 0 9.24 0 14 0 C14 1.98 14 3.96 14 6 C12.68 6 11.36 6 10 6 C10 9.63 10 13.26 10 17 C8.02 17 6.04 17 4 17 C4 13.37 4 9.74 4 6 C2.68 6 1.36 6 0 6 C0 4.02 0 2.04 0 0 Z " fill="#F9F9F9" transform="translate(106,69)"/>
<path d="M0 0 C0.1875 2.8125 0.1875 2.8125 0 6 C-1.3125 7.5 -1.3125 7.5 -3 9 C-3.495 10.010625 -3.99 11.02125 -4.5 12.0625 C-6 15 -6 15 -9 17 C-12.1875 17.125 -12.1875 17.125 -15 17 C-15.3125 14.1875 -15.3125 14.1875 -15 11 C-13.36935236 9.94228261 -11.69719127 8.94726954 -10 8 C-8.95191959 6.02477154 -7.9479589 4.02518491 -7 2 C-4 0 -4 0 0 0 Z " fill="#EEEEEE" transform="translate(71,69)"/>
<path d="M0 0 C0.33 0 0.66 0 1 0 C1 1.65 1 3.3 1 5 C1.78375 5.103125 2.5675 5.20625 3.375 5.3125 C6 6 6 6 8 9 C7.625 12.6875 7.625 12.6875 7 16 C3.75 16.8125 3.75 16.8125 0 17 C-2.70651697 14.43593129 -3.82395916 12.52812251 -5 9 C-7.00016466 7.79117904 -7.00016466 7.79117904 -9 7 C-9 6.34 -9 5.68 -9 5 C-6.5625 5.375 -6.5625 5.375 -4 6 C-3.67 6.66 -3.34 7.32 -3 8 C-2.01 8.33 -1.02 8.66 0 9 C-0.33 8.34 -0.66 7.68 -1 7 C-1.125 3.9375 -1.125 3.9375 -1 1 C-0.67 0.67 -0.34 0.34 0 0 Z " fill="#050417" transform="translate(123,129)"/>
<path d="M0 0 C4.87804878 4.14634146 4.87804878 4.14634146 5.4375 8.0625 C4.7993455 12.34725167 4.10637694 14.1556597 0.625 16.8125 C-2 18 -2 18 -4.3125 17.6875 C-4.869375 17.460625 -5.42625 17.23375 -6 17 C-5.01 15.68 -4.02 14.36 -3 13 C-3.33 12.34 -3.66 11.68 -4 11 C-3.34 11 -2.68 11 -2 11 C-2 9.68 -2 8.36 -2 7 C-3.65 7.66 -5.3 8.32 -7 9 C-6.814375 8.4225 -6.62875 7.845 -6.4375 7.25 C-5.95976454 4.79307475 -6.24270636 3.35602466 -7 1 C-5.5459375 1.0309375 -5.5459375 1.0309375 -4.0625 1.0625 C-1.12534105 1.35618499 -1.12534105 1.35618499 0 0 Z " fill="#C6C6C6" transform="translate(100,68)"/>
<path d="M0 0 C1.2065625 0.0309375 1.2065625 0.0309375 2.4375 0.0625 C2.1075 1.7125 1.7775 3.3625 1.4375 5.0625 C2.4275 5.0625 3.4175 5.0625 4.4375 5.0625 C4.4375 3.4125 4.4375 1.7625 4.4375 0.0625 C6.0875 0.0625 7.7375 0.0625 9.4375 0.0625 C10.74907516 2.68565032 10.33399988 4.29283436 10 7.1875 C9.89816406 8.09757812 9.79632813 9.00765625 9.69140625 9.9453125 C9.60761719 10.64398438 9.52382813 11.34265625 9.4375 12.0625 C7.7875 12.0625 6.1375 12.0625 4.4375 12.0625 C4.4375 10.4125 4.4375 8.7625 4.4375 7.0625 C3.4475 7.0625 2.4575 7.0625 1.4375 7.0625 C1.7675 8.7125 2.0975 10.3625 2.4375 12.0625 C0.4575 12.0625 -1.5225 12.0625 -3.5625 12.0625 C-3.58937279 10.25007948 -3.60883715 8.43754767 -3.625 6.625 C-3.63660156 5.61566406 -3.64820313 4.60632812 -3.66015625 3.56640625 C-3.52706167 0.15386128 -3.42090834 0.08343679 0 0 Z " fill="#ECECEC" transform="translate(49.5625,50.9375)"/>
<path d="M0 0 C2.875 0.4375 2.875 0.4375 4.875 2.4375 C5.375 5.3125 5.375 5.3125 4.875 8.4375 C1.95090542 11.02158358 -0.03727976 12.3166422 -3.9375 12.75 C-6.125 12.4375 -6.125 12.4375 -7.125 11.4375 C-7.54709289 7.72308261 -7.35674237 5.84750573 -5.5 2.5625 C-3.125 0.4375 -3.125 0.4375 0 0 Z " fill="#050514" transform="translate(87.125,1.5625)"/>
<path d="M0 0 C0.33 0 0.66 0 1 0 C1.268125 1.0725 1.53625 2.145 1.8125 3.25 C2.87631151 6.60940478 3.83366479 8.34131588 6 11 C6 11.66 6 12.32 6 13 C6.66 13 7.32 13 8 13 C11.14287157 16.74726995 11.46483727 20.08610711 11.28515625 24.7890625 C10.71351522 29.22123819 8.94125855 32.03105738 5.875 35.1875 C2.11743074 37.55640236 -1.75100188 38.7780659 -6 40 C-6 39.01 -6 38.02 -6 37 C-4.98679687 36.56300781 -4.98679687 36.56300781 -3.953125 36.1171875 C1.51398128 33.60484675 5.46651559 31.7579191 8 26 C8.94266411 21.00388023 7.85521825 18.39444395 5.125 14.3125 C4.32449219 13.22388672 4.32449219 13.22388672 3.5078125 12.11328125 C0.50407044 7.90337334 -0.23698727 5.21371989 0 0 Z " fill="#08071B" transform="translate(20,68)"/>
<path d="M0 0 C0.8971875 0.309375 0.8971875 0.309375 1.8125 0.625 C1.1628125 1.24375 1.1628125 1.24375 0.5 1.875 C-2.67416587 5.16672757 -4.61290281 7.34983755 -4.5625 12.0625 C-4.43875 13.238125 -4.315 14.41375 -4.1875 15.625 C-1.7125 16.615 -1.7125 16.615 0.8125 17.625 C3.96361212 15.09547712 4.40048017 12.85743734 5 8.9375 C5.15855469 7.94363281 5.31710938 6.94976562 5.48046875 5.92578125 C5.59003906 5.16652344 5.69960938 4.40726562 5.8125 3.625 C6.4725 3.955 7.1325 4.285 7.8125 4.625 C8.10297722 10.24089298 7.92092092 13.72325932 4.8125 18.625 C1.93779507 20.06235246 -0.00644588 20.00672649 -3.1875 19.625 C-5.83625262 17.46417549 -7.01330882 15.84869301 -7.5 12.4296875 C-7.60950323 8.28225261 -7.44442349 5.20729802 -5.1875 1.625 C-2.1875 -0.375 -2.1875 -0.375 0 0 Z " fill="#0A091D" transform="translate(17.1875,80.375)"/>
<path d="M0 0 C3.3 0 6.6 0 10 0 C10.33 0.99 10.66 1.98 11 3 C8.03 2.505 8.03 2.505 5 2 C5.33 2.66 5.66 3.32 6 4 C6.66 3.67 7.32 3.34 8 3 C8 4.65 8 6.3 8 8 C7.01 7.67 6.02 7.34 5 7 C5 7.99 5 8.98 5 10 C7.31 9.34 9.62 8.68 12 8 C11.67 9.32 11.34 10.64 11 12 C7.37 12 3.74 12 0 12 C0 8.04 0 4.08 0 0 Z " fill="#F0F0F0" transform="translate(61,51)"/>
<path d="M0 0 C3.3 0 6.6 0 10 0 C10.33 1.32 10.66 2.64 11 4 C9.68 3.67 8.36 3.34 7 3 C7.33 5.97 7.66 8.94 8 12 C6.02 12 4.04 12 2 12 C1.67 11.34 1.34 10.68 1 10 C1.66 10 2.32 10 3 10 C3 7.69 3 5.38 3 3 C1.68 3.33 0.36 3.66 -1 4 C-0.67 2.68 -0.34 1.36 0 0 Z " fill="#F6F6F6" transform="translate(34,51)"/>
<path d="M0 0 C0.66 0 1.32 0 2 0 C-0.54227713 8.47425711 -3.89786967 15.46001625 -11 21 C-14.87746217 22.45404832 -18.88084057 22.08076783 -23 22 C-23.33 21.34 -23.66 20.68 -24 20 C-23.33613281 19.89042969 -22.67226562 19.78085937 -21.98828125 19.66796875 C-21.10527344 19.50941406 -20.22226563 19.35085937 -19.3125 19.1875 C-18.44238281 19.03667969 -17.57226562 18.88585937 -16.67578125 18.73046875 C-10.9769314 17.17472434 -8.32801009 14.55672682 -5.3125 9.5625 C-4.73113281 8.61503906 -4.14976563 7.66757813 -3.55078125 6.69140625 C-2.28219769 4.48975872 -1.09882946 2.28967911 0 0 Z " fill="#0B0A1D" transform="translate(107,4)"/>
<path d="M0 0 C-0.33 0.99 -0.66 1.98 -1 3 C-2.65 3 -4.3 3 -6 3 C-5.67 4.32 -5.34 5.64 -5 7 C-5.66 7 -6.32 7 -7 7 C-6.67 8.32 -6.34 9.64 -6 11 C-7.98 11.66 -9.96 12.32 -12 13 C-12.93007204 10.44230189 -13.28739184 8.70731153 -12.24609375 6.14453125 C-8.76646698 -0.08284507 -6.88939516 -0.12758139 0 0 Z " fill="#B9B9B9" transform="translate(100,67)"/>
<path d="M0 0 C0.66 0.33 1.32 0.66 2 1 C1.13375 1.99 1.13375 1.99 0.25 3 C-1.5747951 5.43306013 -2.73947184 7.41386403 -4 10.125 C-5.54539644 13.31801754 -6.74946993 15.32548451 -10 17 C-14.23379842 18.30104841 -16.3555524 17.77884396 -20.25 15.75 C-21.12140625 15.31171875 -21.9928125 14.8734375 -22.890625 14.421875 C-25 13 -25 13 -26 10 C-25.34 10 -24.68 10 -24 10 C-23.55398437 10.4640625 -23.10796875 10.928125 -22.6484375 11.40625 C-19.70772932 14.24939914 -16.01428479 14.92184578 -12 15 C-7.62795374 12.05141066 -5.06020054 7.28959052 -2.234375 2.890625 C-1 1 -1 1 0 0 Z " fill="#0A091D" transform="translate(57,18)"/>
<path d="M0 0 C0 0.99 0 1.98 0 3 C-0.56847656 3.01417969 -1.13695313 3.02835937 -1.72265625 3.04296875 C-7.69695229 3.41199872 -11.83394356 4.56484422 -16 9 C-17.72835437 11.56863725 -19.2675458 14.16674235 -20.73828125 16.890625 C-22 19 -22 19 -24 20 C-21.73168953 12.06091336 -17.58337812 6.79603565 -11 2 C-7.23437824 -0.02057753 -4.24641769 -0.1975078 0 0 Z " fill="#08081D" transform="translate(43,102)"/>
<path d="M0 0 C1.32 0.33 2.64 0.66 4 1 C-2.27648579 7.43927649 -2.27648579 7.43927649 -5.5 9.9375 C-9.10203714 12.90918064 -11.99821767 16.43592414 -15 20 C-15.33 19.34 -15.66 18.68 -16 18 C-15.67 17.34 -15.34 16.68 -15 16 C-14.34 16 -13.68 16 -13 16 C-12.90460938 15.41347656 -12.80921875 14.82695312 -12.7109375 14.22265625 C-11.84774949 11.52400801 -10.67521319 10.3709289 -8.625 8.4375 C-8.01914063 7.85871094 -7.41328125 7.27992187 -6.7890625 6.68359375 C-6.19867188 6.12800781 -5.60828125 5.57242187 -5 5 C-4.47148438 4.43410156 -3.94296875 3.86820312 -3.3984375 3.28515625 C-2 2 -2 2 0 2 C0 1.34 0 0.68 0 0 Z " fill="#080717" transform="translate(124,0)"/>
<path d="M0 0 C0.78375 0.04125 1.5675 0.0825 2.375 0.125 C1.39273438 1.12080078 1.39273438 1.12080078 0.390625 2.13671875 C-2.09743529 5.82541279 -2.08785166 8.66000029 -1.875 12.9375 C-1.85695313 13.63037109 -1.83890625 14.32324219 -1.8203125 15.03710938 C-1.77351064 16.73367664 -1.70177624 18.42952476 -1.625 20.125 C-4.47290575 15.85314137 -4.78408976 13.76157083 -4.8125 8.625 C-4.83376953 6.87703125 -4.83376953 6.87703125 -4.85546875 5.09375 C-4.55749956 1.25550282 -3.92127401 0.18672733 0 0 Z " fill="#09091D" transform="translate(127.625,70.875)"/>
<path d="M0 0 C0.61875 0.515625 1.2375 1.03125 1.875 1.5625 C7.37757954 4.09368659 13.29889996 2.52731548 19 1 C18.67 1.99 18.34 2.98 18 4 C13.13439721 6.16341112 8.53163448 7.33747878 3.3125 6.1875 C2.549375 5.795625 1.78625 5.40375 1 5 C0.67 3.35 0.34 1.7 0 0 Z " fill="#0A0A1E" transform="translate(121,62)"/>
<path d="M0 0 C0.99 0.99 1.98 1.98 3 3 C0 5 0 5 -3 5 C-5.18777466 6.9375006 -5.18777466 6.9375006 -7 9 C-6.814375 8.4225 -6.62875 7.845 -6.4375 7.25 C-5.95976454 4.79307475 -6.24270636 3.35602466 -7 1 C-5.5459375 1.0309375 -5.5459375 1.0309375 -4.0625 1.0625 C-1.12534105 1.35618499 -1.12534105 1.35618499 0 0 Z " fill="#E4E4E4" transform="translate(100,68)"/>
<path d="M0 0 C2.97 0.495 2.97 0.495 6 1 C5.67 1.99 5.34 2.98 5 4 C5.99 4 6.98 4 8 4 C7.67 4.99 7.34 5.98 7 7 C4.69 7.33 2.38 7.66 0 8 C0 7.01 0 6.02 0 5 C0.66 5 1.32 5 2 5 C2 4.01 2 3.02 2 2 C1.01 2.495 1.01 2.495 0 3 C0 2.01 0 1.02 0 0 Z " fill="#171717" transform="translate(66,53)"/>
<path d="M0 0 C-0.33 0.99 -0.66 1.98 -1 3 C-2.65 3 -4.3 3 -6 3 C-5.67 4.32 -5.34 5.64 -5 7 C-6.32 6.67 -7.64 6.34 -9 6 C-9.33 4.68 -9.66 3.36 -10 2 C-6.3558226 -0.4294516 -4.28758728 -0.16179575 0 0 Z " fill="#858586" transform="translate(100,67)"/>
<path d="M0 0 C0.9075 0.103125 1.815 0.20625 2.75 0.3125 C0.75 2.3125 0.75 2.3125 -1.1875 3 C-4.39635467 5.04199843 -4.94683188 7.79394608 -6.25 11.3125 C-6.58 11.3125 -6.91 11.3125 -7.25 11.3125 C-7.5934538 7.62037163 -7.471621 5.70459869 -5.625 2.4375 C-3.25 0.3125 -3.25 0.3125 0 0 Z " fill="#0A0A1F" transform="translate(87.25,1.6875)"/>
<path d="M0 0 C0.66 0.66 1.32 1.32 2 2 C1.67 2.99 1.34 3.98 1 5 C2.32 4.67 3.64 4.34 5 4 C5 6.31 5 8.62 5 11 C4.62875 10.0409375 4.62875 10.0409375 4.25 9.0625 C3.18437567 6.81258459 3.18437567 6.81258459 0.875 6.25 C0.25625 6.1675 -0.3625 6.085 -1 6 C-1.042721 4.33388095 -1.04063832 2.66617115 -1 1 C-0.67 0.67 -0.34 0.34 0 0 Z " fill="#161618" transform="translate(32,50)"/>
<path d="M0 0 C0.598125 0.185625 1.19625 0.37125 1.8125 0.5625 C4.16408762 1.22093687 4.16408762 1.22093687 7 0 C7.33 1.32 7.66 2.64 8 4 C4.37673261 5.2077558 3.35853631 4.54311128 0 3 C0 2.01 0 1.02 0 0 Z " fill="#B2B2B2" transform="translate(97,71)"/>
<path d="M0 0 C0 0.66 0 1.32 0 2 C-0.90492188 2.09087891 -0.90492188 2.09087891 -1.828125 2.18359375 C-3.02695313 2.30927734 -3.02695313 2.30927734 -4.25 2.4375 C-5.03890625 2.51871094 -5.8278125 2.59992187 -6.640625 2.68359375 C-8.82364639 2.97634993 -10.8773182 3.42064419 -13 4 C-13 3.34 -13 2.68 -13 2 C-4.738041 -1.62870159 -4.738041 -1.62870159 0 0 Z " fill="#09081D" transform="translate(160,57)"/>
<path d="M0 0 C0.33 0 0.66 0 1 0 C1 1.65 1 3.3 1 5 C2.65 5.33 4.3 5.66 6 6 C6.33 6.99 6.66 7.98 7 9 C4.36 8.34 1.72 7.68 -1 7 C-1.04254356 5.00045254 -1.04080783 2.99958364 -1 1 C-0.67 0.67 -0.34 0.34 0 0 Z " fill="#0B0A1F" transform="translate(123,129)"/>
<path d="M0 0 C0.66 0 1.32 0 2 0 C1.649375 0.680625 1.29875 1.36125 0.9375 2.0625 C-0.24239841 5.75951503 0.14966249 8.24434265 1 12 C1.66 12.66 2.32 13.32 3 14 C1.0625 13.625 1.0625 13.625 -1 13 C-2.5635348 9.87293041 -2.39958487 6.42017557 -2 3 C-1.34 2.01 -0.68 1.02 0 0 Z " fill="#0A091B" transform="translate(130,26)"/>
<path d="M0 0 C-2.75520215 2.95929119 -5.46627288 5.03681826 -9 7 C-9 3 -9 3 -7.3125 1.25 C-4.64865849 -0.18991433 -2.98355176 -0.24862931 0 0 Z " fill="#090719" transform="translate(9,109)"/>
<path d="M0 0 C0.66 0 1.32 0 2 0 C1.71125 0.70125 1.4225 1.4025 1.125 2.125 C-0.02133588 5.05452503 -1.02625654 8.00921653 -2 11 C-2.66 10.67 -3.32 10.34 -4 10 C-3.67 8.02 -3.34 6.04 -3 4 C-2.01 3.67 -1.02 3.34 0 3 C0 2.01 0 1.02 0 0 Z " fill="#0B0A1A" transform="translate(105,21)"/>
<path d="M0 0 C1.134375 0.020625 2.26875 0.04125 3.4375 0.0625 C0.78899008 2.71100992 -2.22456447 4.39353223 -5.5625 6.0625 C-4.48849278 0.07874549 -4.48849278 0.07874549 0 0 Z " fill="#070719" transform="translate(109.5625,102.9375)"/>
<path d="M0 0 C0.33 0 0.66 0 1 0 C1.36923077 7.50769231 1.36923077 7.50769231 -0.5 10 C-0.995 10.33 -1.49 10.66 -2 11 C-2.99 10.67 -3.98 10.34 -5 10 C-4.360625 9.46375 -3.72125 8.9275 -3.0625 8.375 C-0.61470596 5.55632807 -0.33285388 3.66139268 0 0 Z " fill="#08071B" transform="translate(143,29)"/>
<path d="M0 0 C0.66 0 1.32 0 2 0 C2.36923077 5.41538462 2.36923077 5.41538462 0.5 8.375 C0.005 8.91125 -0.49 9.4475 -1 10 C-1.125 3.375 -1.125 3.375 0 0 Z " fill="#09081B" transform="translate(68,132)"/>
</svg>
